<svg id="visual" viewBox="0 0 1440 1024" width="1440" height="1024" xmlns="http://www.w3.org/2000/svg" xmlns:xlink="http://www.w3.org/1999/xlink" version="1.1"><g stroke-width="1" stroke-linejoin="bevel"><path d="M695 558.1L670 577.1L714 620.4Z" fill="#ffdb91" stroke="#ffdb91"></path><path d="M647 483.9L616 571.4L670 577.1Z" fill="#ffc107" stroke="#ffc107"></path><path d="M670 577.1L606 598.4L714 620.4Z" fill="#ffcb50" stroke="#ffcb50"></path><path d="M689 703.7L760 654.7L714 620.4Z" fill="#fcebce" stroke="#fcebce"></path><path d="M714 620.4L797 542.1L695 558.1Z" fill="#ffc107" stroke="#ffc107"></path><path d="M760 654.7L775 642.7L714 620.4Z" fill="#faf0e2" stroke="#faf0e2"></path><path d="M616 571.4L606 598.4L670 577.1Z" fill="#ffd67c" stroke="#ffd67c"></path><path d="M775 642.7L797 542.1L714 620.4Z" fill="#ffdb91" stroke="#ffdb91"></path><path d="M606 598.4L689 703.7L714 620.4Z" fill="#f6f6f6" stroke="#f6f6f6"></path><path d="M735 447.9L647 483.9L695 558.1Z" fill="#f6f6f6" stroke="#f6f6f6"></path><path d="M695 558.1L647 483.9L670 577.1Z" fill="#ffdb91" stroke="#ffdb91"></path><path d="M519 574.1L519 590.4L606 598.4Z" fill="#ffd167" stroke="#ffd167"></path><path d="M775 642.7L831 574.4L797 542.1Z" fill="#fee6b9" stroke="#fee6b9"></path><path d="M647 483.9L590 512.1L616 571.4Z" fill="#ffd167" stroke="#ffd167"></path><path d="M601 694.7L681 729.9L689 703.7Z" fill="#ffd167" stroke="#ffd167"></path><path d="M689 703.7L795 743.9L760 654.7Z" fill="#ffe0a5" stroke="#ffe0a5"></path><path d="M760 654.7L795 743.9L775 642.7Z" fill="#f6f6f6" stroke="#f6f6f6"></path><path d="M519 590.4L601 694.7L606 598.4Z" fill="#fee6b9" stroke="#fee6b9"></path><path d="M606 598.4L601 694.7L689 703.7Z" fill="#ffd167" stroke="#ffd167"></path><path d="M813 456.9L735 447.9L797 542.1Z" fill="#ffe0a5" stroke="#ffe0a5"></path><path d="M797 542.1L735 447.9L695 558.1Z" fill="#ffd67c" stroke="#ffd67c"></path><path d="M652 418.6L592 461.9L647 483.9Z" fill="#ffc107" stroke="#ffc107"></path><path d="M647 483.9L592 461.9L590 512.1Z" fill="#fee6b9" stroke="#fee6b9"></path><path d="M867 531.1L813 456.9L797 542.1Z" fill="#f6f6f6" stroke="#f6f6f6"></path><path d="M930 637.4L867 531.1L831 574.4Z" fill="#fcebce" stroke="#fcebce"></path><path d="M831 574.4L867 531.1L797 542.1Z" fill="#ffc107" stroke="#ffc107"></path><path d="M758 383.6L652 418.6L735 447.9Z" fill="#ffd67c" stroke="#ffd67c"></path><path d="M735 447.9L652 418.6L647 483.9Z" fill="#ffc636" stroke="#ffc636"></path><path d="M681 729.9L795 743.9L689 703.7Z" fill="#faf0e2" stroke="#faf0e2"></path><path d="M775 642.7L873 663.7L831 574.4Z" fill="#ffc636" stroke="#ffc636"></path><path d="M519 574.1L616 571.4L590 512.1Z" fill="#faf0e2" stroke="#faf0e2"></path><path d="M519 574.1L606 598.4L616 571.4Z" fill="#ffdb91" stroke="#ffdb91"></path><path d="M487 440.9L519 574.1L590 512.1Z" fill="#faf0e2" stroke="#faf0e2"></path><path d="M795 743.9L873 663.7L775 642.7Z" fill="#faf0e2" stroke="#faf0e2"></path><path d="M867 531.1L830 447.6L813 456.9Z" fill="#faf0e2" stroke="#faf0e2"></path><path d="M813 456.9L758 383.6L735 447.9Z" fill="#ffd167" stroke="#ffd167"></path><path d="M660 792.2L675 786.9L681 729.9Z" fill="#ffd167" stroke="#ffd167"></path><path d="M681 729.9L747 821.2L795 743.9Z" fill="#ffe0a5" stroke="#ffe0a5"></path><path d="M930 637.4L890 652.4L945 709.7Z" fill="#ffcb50" stroke="#ffcb50"></path><path d="M873 663.7L890 652.4L831 574.4Z" fill="#fee6b9" stroke="#fee6b9"></path><path d="M539 728.9L588 756.9L601 694.7Z" fill="#ffc636" stroke="#ffc636"></path><path d="M601 694.7L588 756.9L681 729.9Z" fill="#faf0e2" stroke="#faf0e2"></path><path d="M923 532.1L888 514.9L867 531.1Z" fill="#fcebce" stroke="#fcebce"></path><path d="M867 531.1L888 514.9L830 447.6Z" fill="#f6f6f6" stroke="#f6f6f6"></path><path d="M588 756.9L660 792.2L681 729.9Z" fill="#fcebce" stroke="#fcebce"></path><path d="M519 590.4L531 712.7L601 694.7Z" fill="#ffe0a5" stroke="#ffe0a5"></path><path d="M531 712.7L539 728.9L601 694.7Z" fill="#ffcb50" stroke="#ffcb50"></path><path d="M830 447.6L758 383.6L813 456.9Z" fill="#fee6b9" stroke="#fee6b9"></path><path d="M610 371.3L612 383.6L631 357.3Z" fill="#ffcb50" stroke="#ffcb50"></path><path d="M652 418.6L612 383.6L592 461.9Z" fill="#fcebce" stroke="#fcebce"></path><path d="M412 502.9L447 575.1L519 574.1Z" fill="#faf0e2" stroke="#faf0e2"></path><path d="M930 637.4L923 532.1L867 531.1Z" fill="#fcebce" stroke="#fcebce"></path><path d="M888 514.9L882 448.6L830 447.6Z" fill="#f6f6f6" stroke="#f6f6f6"></path><path d="M912 468.9L882 448.6L888 514.9Z" fill="#ffc107" stroke="#ffc107"></path><path d="M830 447.6L800 346.3L758 383.6Z" fill="#ffc636" stroke="#ffc636"></path><path d="M945 709.7L890 652.4L873 663.7Z" fill="#ffd67c" stroke="#ffd67c"></path><path d="M890 652.4L930 637.4L831 574.4Z" fill="#ffdb91" stroke="#ffdb91"></path><path d="M672 888.5L747 821.2L675 786.9Z" fill="#f6f6f6" stroke="#f6f6f6"></path><path d="M675 786.9L747 821.2L681 729.9Z" fill="#ffcb50" stroke="#ffcb50"></path><path d="M795 743.9L844 779.9L873 663.7Z" fill="#faf0e2" stroke="#faf0e2"></path><path d="M631 357.3L612 383.6L652 418.6Z" fill="#faf0e2" stroke="#faf0e2"></path><path d="M514 399.6L487 440.9L592 461.9Z" fill="#ffc636" stroke="#ffc636"></path><path d="M812 836.2L844 779.9L795 743.9Z" fill="#ffe0a5" stroke="#ffe0a5"></path><path d="M447 575.1L466 650.4L519 590.4Z" fill="#ffd167" stroke="#ffd167"></path><path d="M519 590.4L466 650.4L531 712.7Z" fill="#ffd167" stroke="#ffd167"></path><path d="M462 827.2L542 788.2L539 728.9Z" fill="#ffcb50" stroke="#ffcb50"></path><path d="M447 575.1L519 590.4L519 574.1Z" fill="#ffc636" stroke="#ffc636"></path><path d="M542 788.2L588 756.9L539 728.9Z" fill="#ffd67c" stroke="#ffd67c"></path><path d="M542 788.2L572 797.2L588 756.9Z" fill="#faf0e2" stroke="#faf0e2"></path><path d="M588 756.9L572 797.2L660 792.2Z" fill="#ffe0a5" stroke="#ffe0a5"></path><path d="M660 792.2L672 888.5L675 786.9Z" fill="#ffd67c" stroke="#ffd67c"></path><path d="M701 321.3L631 357.3L652 418.6Z" fill="#ffd167" stroke="#ffd167"></path><path d="M923 532.1L912 468.9L888 514.9Z" fill="#fcebce" stroke="#fcebce"></path><path d="M422 721.7L539 728.9L531 712.7Z" fill="#f6f6f6" stroke="#f6f6f6"></path><path d="M487 440.9L590 512.1L592 461.9Z" fill="#ffe0a5" stroke="#ffe0a5"></path><path d="M514 399.6L612 383.6L610 371.3Z" fill="#fee6b9" stroke="#fee6b9"></path><path d="M514 399.6L592 461.9L612 383.6Z" fill="#faf0e2" stroke="#faf0e2"></path><path d="M833 337.3L830 447.6L882 448.6Z" fill="#ffcb50" stroke="#ffcb50"></path><path d="M833 337.3L800 346.3L830 447.6Z" fill="#faf0e2" stroke="#faf0e2"></path><path d="M758 383.6L701 321.3L652 418.6Z" fill="#f6f6f6" stroke="#f6f6f6"></path><path d="M982 446.9L916 438.6L912 468.9Z" fill="#ffe0a5" stroke="#ffe0a5"></path><path d="M912 468.9L916 438.6L882 448.6Z" fill="#ffdb91" stroke="#ffdb91"></path><path d="M546 334.3L514 399.6L610 371.3Z" fill="#fcebce" stroke="#fcebce"></path><path d="M800 346.3L701 321.3L758 383.6Z" fill="#ffc636" stroke="#ffc636"></path><path d="M613 299.1L546 334.3L610 371.3Z" fill="#ffcb50" stroke="#ffcb50"></path><path d="M747 821.2L812 836.2L795 743.9Z" fill="#faf0e2" stroke="#faf0e2"></path><path d="M844 779.9L945 709.7L873 663.7Z" fill="#faf0e2" stroke="#faf0e2"></path><path d="M761 905.5L812 836.2L747 821.2Z" fill="#ffe0a5" stroke="#ffe0a5"></path><path d="M887 806.2L945 709.7L844 779.9Z" fill="#ffc636" stroke="#ffc636"></path><path d="M930 637.4L970 553.1L923 532.1Z" fill="#f6f6f6" stroke="#f6f6f6"></path><path d="M923 532.1L982 446.9L912 468.9Z" fill="#fcebce" stroke="#fcebce"></path><path d="M1024 598.4L970 553.1L930 637.4Z" fill="#ffd67c" stroke="#ffd67c"></path><path d="M812 836.2L887 806.2L844 779.9Z" fill="#ffd167" stroke="#ffd167"></path><path d="M916 438.6L833 337.3L882 448.6Z" fill="#fcebce" stroke="#fcebce"></path><path d="M800 346.3L762 253.1L701 321.3Z" fill="#ffd67c" stroke="#ffd67c"></path><path d="M613 299.1L610 371.3L631 357.3Z" fill="#ffc636" stroke="#ffc636"></path><path d="M403 422.6L412 502.9L487 440.9Z" fill="#f6f6f6" stroke="#f6f6f6"></path><path d="M591 889.5L660 792.2L572 797.2Z" fill="#fcebce" stroke="#fcebce"></path><path d="M591 889.5L672 888.5L660 792.2Z" fill="#ffdb91" stroke="#ffdb91"></path><path d="M403 422.6L487 440.9L514 399.6Z" fill="#ffdb91" stroke="#ffdb91"></path><path d="M487 440.9L412 502.9L519 574.1Z" fill="#ffcb50" stroke="#ffcb50"></path><path d="M376 720.7L422 721.7L466 650.4Z" fill="#ffcb50" stroke="#ffcb50"></path><path d="M630 292.1L631 357.3L701 321.3Z" fill="#fee6b9" stroke="#fee6b9"></path><path d="M630 292.1L613 299.1L631 357.3Z" fill="#fee6b9" stroke="#fee6b9"></path><path d="M717 233.8L630 292.1L701 321.3Z" fill="#ffdb91" stroke="#ffdb91"></path><path d="M388 574.4L466 650.4L447 575.1Z" fill="#ffc636" stroke="#ffc636"></path><path d="M466 650.4L422 721.7L531 712.7Z" fill="#ffdb91" stroke="#ffdb91"></path><path d="M542 788.2L591 889.5L572 797.2Z" fill="#ffd167" stroke="#ffd167"></path><path d="M993 735.9L999 676.7L945 709.7Z" fill="#ffdb91" stroke="#ffdb91"></path><path d="M945 709.7L999 676.7L930 637.4Z" fill="#ffe0a5" stroke="#ffe0a5"></path><path d="M343 486.9L396 520.1L412 502.9Z" fill="#ffc636" stroke="#ffc636"></path><path d="M412 502.9L396 520.1L447 575.1Z" fill="#ffd167" stroke="#ffd167"></path><path d="M396 520.1L388 574.4L447 575.1Z" fill="#ffc107" stroke="#ffc107"></path><path d="M887 806.2L965 762.9L945 709.7Z" fill="#ffdb91" stroke="#ffdb91"></path><path d="M970 553.1L982 446.9L923 532.1Z" fill="#ffd167" stroke="#ffd167"></path><path d="M916 438.6L955 312.3L833 337.3Z" fill="#ffdb91" stroke="#ffdb91"></path><path d="M1083 509.1L982 446.9L970 553.1Z" fill="#fee6b9" stroke="#fee6b9"></path><path d="M519 919.5L591 889.5L542 788.2Z" fill="#ffc107" stroke="#ffc107"></path><path d="M739 965.7L761 905.5L672 888.5Z" fill="#ffd67c" stroke="#ffd67c"></path><path d="M672 888.5L761 905.5L747 821.2Z" fill="#f6f6f6" stroke="#f6f6f6"></path><path d="M812 836.2L833 909.5L887 806.2Z" fill="#ffc107" stroke="#ffc107"></path><path d="M887 806.2L975 781.2L965 762.9Z" fill="#faf0e2" stroke="#faf0e2"></path><path d="M999 676.7L1024 598.4L930 637.4Z" fill="#faf0e2" stroke="#faf0e2"></path><path d="M965 762.9L993 735.9L945 709.7Z" fill="#ffd167" stroke="#ffd167"></path><path d="M999 676.7L1056 664.7L1024 598.4Z" fill="#ffdb91" stroke="#ffdb91"></path><path d="M1118 443.6L984 414.6L982 446.9Z" fill="#fcebce" stroke="#fcebce"></path><path d="M982 446.9L984 414.6L916 438.6Z" fill="#ffdb91" stroke="#ffdb91"></path><path d="M990 823.2L975 781.2L887 806.2Z" fill="#ffd167" stroke="#ffd167"></path><path d="M965 762.9L975 781.2L993 735.9Z" fill="#fcebce" stroke="#fcebce"></path><path d="M422 721.7L462 827.2L539 728.9Z" fill="#fcebce" stroke="#fcebce"></path><path d="M423 328.3L403 422.6L514 399.6Z" fill="#ffc636" stroke="#ffc636"></path><path d="M396 520.1L343 486.9L388 574.4Z" fill="#ffc107" stroke="#ffc107"></path><path d="M796 253.1L800 346.3L833 337.3Z" fill="#fee6b9" stroke="#fee6b9"></path><path d="M796 253.1L762 253.1L800 346.3Z" fill="#ffc636" stroke="#ffc636"></path><path d="M761 905.5L833 909.5L812 836.2Z" fill="#ffd67c" stroke="#ffd67c"></path><path d="M388 574.4L376 720.7L466 650.4Z" fill="#ffdb91" stroke="#ffdb91"></path><path d="M422 721.7L399 790.9L462 827.2Z" fill="#ffdb91" stroke="#ffdb91"></path><path d="M853 269.1L796 253.1L833 337.3Z" fill="#fee6b9" stroke="#fee6b9"></path><path d="M761 905.5L825 921.5L833 909.5Z" fill="#fee6b9" stroke="#fee6b9"></path><path d="M833 909.5L925 885.5L887 806.2Z" fill="#ffc107" stroke="#ffc107"></path><path d="M786 942.7L825 921.5L761 905.5Z" fill="#fcebce" stroke="#fcebce"></path><path d="M955 312.3L853 269.1L833 337.3Z" fill="#ffc107" stroke="#ffc107"></path><path d="M761 168.5L717 233.8L762 253.1Z" fill="#ffd167" stroke="#ffd167"></path><path d="M762 253.1L717 233.8L701 321.3Z" fill="#fee6b9" stroke="#fee6b9"></path><path d="M614 182.8L499 243.1L613 299.1Z" fill="#ffd167" stroke="#ffd167"></path><path d="M468 245.1L423 328.3L546 334.3Z" fill="#f6f6f6" stroke="#f6f6f6"></path><path d="M540 950.7L649 945.7L591 889.5Z" fill="#fcebce" stroke="#fcebce"></path><path d="M591 889.5L649 945.7L672 888.5Z" fill="#ffc636" stroke="#ffc636"></path><path d="M376 720.7L399 790.9L422 721.7Z" fill="#ffd167" stroke="#ffd167"></path><path d="M462 827.2L519 919.5L542 788.2Z" fill="#ffdb91" stroke="#ffdb91"></path><path d="M853 269.1L807 244.8L796 253.1Z" fill="#fee6b9" stroke="#fee6b9"></path><path d="M796 253.1L807 244.8L762 253.1Z" fill="#ffdb91" stroke="#ffdb91"></path><path d="M739 965.7L786 942.7L761 905.5Z" fill="#fcebce" stroke="#fcebce"></path><path d="M1054 791.9L1056 664.7L993 735.9Z" fill="#ffc636" stroke="#ffc636"></path><path d="M993 735.9L1056 664.7L999 676.7Z" fill="#ffd67c" stroke="#ffd67c"></path><path d="M1087 361.3L991 345.3L984 414.6Z" fill="#ffe0a5" stroke="#ffe0a5"></path><path d="M860 956.7L833 909.5L825 921.5Z" fill="#ffdb91" stroke="#ffdb91"></path><path d="M860 956.7L925 885.5L833 909.5Z" fill="#fcebce" stroke="#fcebce"></path><path d="M975 781.2L1054 791.9L993 735.9Z" fill="#ffd67c" stroke="#ffd67c"></path><path d="M925 885.5L990 823.2L887 806.2Z" fill="#ffd167" stroke="#ffd167"></path><path d="M403 422.6L343 486.9L412 502.9Z" fill="#ffd67c" stroke="#ffd67c"></path><path d="M277 686.7L341 731.9L376 720.7Z" fill="#ffc107" stroke="#ffc107"></path><path d="M918 205.8L830 240.8L853 269.1Z" fill="#ffc107" stroke="#ffc107"></path><path d="M853 269.1L830 240.8L807 244.8Z" fill="#ffc107" stroke="#ffc107"></path><path d="M761 168.5L685 215.8L717 233.8Z" fill="#ffd167" stroke="#ffd167"></path><path d="M761 168.5L762 253.1L807 244.8Z" fill="#ffe0a5" stroke="#ffe0a5"></path><path d="M717 233.8L685 215.8L630 292.1Z" fill="#ffc636" stroke="#ffc636"></path><path d="M546 334.3L423 328.3L514 399.6Z" fill="#ffc107" stroke="#ffc107"></path><path d="M459 887.5L519 919.5L462 827.2Z" fill="#fee6b9" stroke="#fee6b9"></path><path d="M649 945.7L739 965.7L672 888.5Z" fill="#faf0e2" stroke="#faf0e2"></path><path d="M786 942.7L860 956.7L825 921.5Z" fill="#ffe0a5" stroke="#ffe0a5"></path><path d="M683 1024L739 965.7L649 945.7Z" fill="#ffe0a5" stroke="#ffe0a5"></path><path d="M991 345.3L916 438.6L984 414.6Z" fill="#fcebce" stroke="#fcebce"></path><path d="M991 345.3L955 312.3L916 438.6Z" fill="#ffdb91" stroke="#ffdb91"></path><path d="M1083 509.1L970 553.1L1024 598.4Z" fill="#f6f6f6" stroke="#f6f6f6"></path><path d="M499 243.1L546 334.3L613 299.1Z" fill="#ffdb91" stroke="#ffdb91"></path><path d="M403 422.6L335 424.6L343 486.9Z" fill="#f6f6f6" stroke="#f6f6f6"></path><path d="M391 914.7L459 887.5L347 870.5Z" fill="#f6f6f6" stroke="#f6f6f6"></path><path d="M376 720.7L365 798.2L399 790.9Z" fill="#ffc636" stroke="#ffc636"></path><path d="M347 870.5L459 887.5L462 827.2Z" fill="#ffc636" stroke="#ffc636"></path><path d="M277 686.7L376 720.7L388 574.4Z" fill="#ffd167" stroke="#ffd167"></path><path d="M1107 641.4L1083 509.1L1024 598.4Z" fill="#fee6b9" stroke="#fee6b9"></path><path d="M527 990.7L540 950.7L519 919.5Z" fill="#ffc636" stroke="#ffc636"></path><path d="M519 919.5L540 950.7L591 889.5Z" fill="#ffd167" stroke="#ffd167"></path><path d="M341 731.9L365 798.2L376 720.7Z" fill="#ffcb50" stroke="#ffcb50"></path><path d="M875 1024L860 956.7L786 942.7Z" fill="#fee6b9" stroke="#fee6b9"></path><path d="M1074 855.2L1054 791.9L990 823.2Z" fill="#f6f6f6" stroke="#f6f6f6"></path><path d="M321 409.6L335 424.6L403 422.6Z" fill="#ffc107" stroke="#ffc107"></path><path d="M343 486.9L288 505.1L388 574.4Z" fill="#ffe0a5" stroke="#ffe0a5"></path><path d="M335 424.6L316 473.9L343 486.9Z" fill="#ffd167" stroke="#ffd167"></path><path d="M614 182.8L613 299.1L630 292.1Z" fill="#ffcb50" stroke="#ffcb50"></path><path d="M321 343.3L321 409.6L403 422.6Z" fill="#fee6b9" stroke="#fee6b9"></path><path d="M966 918.7L990 823.2L925 885.5Z" fill="#ffcb50" stroke="#ffcb50"></path><path d="M990 823.2L1054 791.9L975 781.2Z" fill="#faf0e2" stroke="#faf0e2"></path><path d="M1056 664.7L1107 641.4L1024 598.4Z" fill="#ffcb50" stroke="#ffcb50"></path><path d="M1147 653.7L1107 641.4L1124 745.9Z" fill="#ffdb91" stroke="#ffdb91"></path><path d="M1107 641.4L1107 507.9L1083 509.1Z" fill="#fcebce" stroke="#fcebce"></path><path d="M1083 509.1L1118 443.6L982 446.9Z" fill="#f6f6f6" stroke="#f6f6f6"></path><path d="M458 201.8L468 245.1L499 243.1Z" fill="#fee6b9" stroke="#fee6b9"></path><path d="M499 243.1L468 245.1L546 334.3Z" fill="#fcebce" stroke="#fcebce"></path><path d="M686 142.5L614 182.8L685 215.8Z" fill="#ffd67c" stroke="#ffd67c"></path><path d="M685 215.8L614 182.8L630 292.1Z" fill="#fcebce" stroke="#fcebce"></path><path d="M955 312.3L944 249.1L853 269.1Z" fill="#fee6b9" stroke="#fee6b9"></path><path d="M830 240.8L761 168.5L807 244.8Z" fill="#ffd167" stroke="#ffd167"></path><path d="M1042 290.1L944 249.1L955 312.3Z" fill="#fcebce" stroke="#fcebce"></path><path d="M1042 290.1L955 312.3L991 345.3Z" fill="#ffd67c" stroke="#ffd67c"></path><path d="M321 343.3L403 422.6L423 328.3Z" fill="#faf0e2" stroke="#faf0e2"></path><path d="M335 424.6L321 409.6L316 473.9Z" fill="#ffd167" stroke="#ffd167"></path><path d="M237 513.1L288 505.1L239 456.9Z" fill="#ffd167" stroke="#ffd167"></path><path d="M316 473.9L288 505.1L343 486.9Z" fill="#ffe0a5" stroke="#ffe0a5"></path><path d="M966 926.7L966 918.7L925 885.5Z" fill="#ffd167" stroke="#ffd167"></path><path d="M903 104.5L761 168.5L830 240.8Z" fill="#ffc107" stroke="#ffc107"></path><path d="M860 956.7L966 926.7L925 885.5Z" fill="#ffcb50" stroke="#ffcb50"></path><path d="M966 918.7L992 916.5L990 823.2Z" fill="#ffcb50" stroke="#ffcb50"></path><path d="M288 505.1L267 590.4L388 574.4Z" fill="#faf0e2" stroke="#faf0e2"></path><path d="M341 731.9L276 738.9L365 798.2Z" fill="#ffc107" stroke="#ffc107"></path><path d="M679 1024L683 1024L649 945.7Z" fill="#f6f6f6" stroke="#f6f6f6"></path><path d="M739 965.7L751 1024L786 942.7Z" fill="#ffcb50" stroke="#ffcb50"></path><path d="M860 956.7L946 1024L966 926.7Z" fill="#f6f6f6" stroke="#f6f6f6"></path><path d="M256 642.7L277 686.7L388 574.4Z" fill="#faf0e2" stroke="#faf0e2"></path><path d="M591 1024L679 1024L649 945.7Z" fill="#ffc636" stroke="#ffc636"></path><path d="M686 142.5L600 167.5L614 182.8Z" fill="#ffc107" stroke="#ffc107"></path><path d="M614 182.8L508 189.8L499 243.1Z" fill="#ffd67c" stroke="#ffd67c"></path><path d="M489 1024L527 990.7L468 1024Z" fill="#ffdb91" stroke="#ffdb91"></path><path d="M540 950.7L591 1024L649 945.7Z" fill="#ffc107" stroke="#ffc107"></path><path d="M527 990.7L519 919.5L468 1024Z" fill="#fee6b9" stroke="#fee6b9"></path><path d="M683 1024L751 1024L739 965.7Z" fill="#fee6b9" stroke="#fee6b9"></path><path d="M1069 921.7L992 916.5L1043 1024Z" fill="#fee6b9" stroke="#fee6b9"></path><path d="M966 926.7L992 916.5L966 918.7Z" fill="#fee6b9" stroke="#fee6b9"></path><path d="M945 169.5L918 205.8L944 249.1Z" fill="#ffc107" stroke="#ffc107"></path><path d="M944 249.1L918 205.8L853 269.1Z" fill="#ffdb91" stroke="#ffdb91"></path><path d="M1144 501.9L1118 443.6L1107 507.9Z" fill="#ffc107" stroke="#ffc107"></path><path d="M1107 507.9L1118 443.6L1083 509.1Z" fill="#fee6b9" stroke="#fee6b9"></path><path d="M600 167.5L508 189.8L614 182.8Z" fill="#ffc636" stroke="#ffc636"></path><path d="M362 243.1L321 343.3L423 328.3Z" fill="#f6f6f6" stroke="#f6f6f6"></path><path d="M527 990.7L591 1024L540 950.7Z" fill="#faf0e2" stroke="#faf0e2"></path><path d="M267 590.4L256 642.7L388 574.4Z" fill="#fee6b9" stroke="#fee6b9"></path><path d="M347 870.5L399 790.9L365 798.2Z" fill="#ffd67c" stroke="#ffd67c"></path><path d="M347 870.5L462 827.2L399 790.9Z" fill="#ffdb91" stroke="#ffdb91"></path><path d="M696 107.3L686 142.5L759 102.5Z" fill="#ffd67c" stroke="#ffd67c"></path><path d="M761 168.5L686 142.5L685 215.8Z" fill="#ffdb91" stroke="#ffdb91"></path><path d="M600 167.5L527 160.5L508 189.8Z" fill="#ffc636" stroke="#ffc636"></path><path d="M180 780.9L276 738.9L277 686.7Z" fill="#fee6b9" stroke="#fee6b9"></path><path d="M277 686.7L276 738.9L341 731.9Z" fill="#faf0e2" stroke="#faf0e2"></path><path d="M1118 443.6L1087 361.3L984 414.6Z" fill="#ffc636" stroke="#ffc636"></path><path d="M327 864.5L347 870.5L365 798.2Z" fill="#faf0e2" stroke="#faf0e2"></path><path d="M1124 745.9L1107 641.4L1056 664.7Z" fill="#ffe0a5" stroke="#ffe0a5"></path><path d="M1191 554.1L1144 501.9L1107 507.9Z" fill="#faf0e2" stroke="#faf0e2"></path><path d="M1124 745.9L1056 664.7L1054 791.9Z" fill="#f6f6f6" stroke="#f6f6f6"></path><path d="M1148 829.2L1124 745.9L1054 791.9Z" fill="#f6f6f6" stroke="#f6f6f6"></path><path d="M362 243.1L423 328.3L468 245.1Z" fill="#fcebce" stroke="#fcebce"></path><path d="M239 456.9L288 505.1L316 473.9Z" fill="#ffc107" stroke="#ffc107"></path><path d="M288 505.1L243 577.4L267 590.4Z" fill="#fcebce" stroke="#fcebce"></path><path d="M1191 554.1L1107 507.9L1107 641.4Z" fill="#fcebce" stroke="#fcebce"></path><path d="M1118 443.6L1119 382.6L1087 361.3Z" fill="#ffc107" stroke="#ffc107"></path><path d="M1087 361.3L1042 290.1L991 345.3Z" fill="#ffdb91" stroke="#ffdb91"></path><path d="M237 513.1L243 577.4L288 505.1Z" fill="#ffdb91" stroke="#ffdb91"></path><path d="M267 590.4L243 577.4L256 642.7Z" fill="#ffc107" stroke="#ffc107"></path><path d="M527 160.5L458 201.8L508 189.8Z" fill="#ffe0a5" stroke="#ffe0a5"></path><path d="M508 189.8L458 201.8L499 243.1Z" fill="#fcebce" stroke="#fcebce"></path><path d="M992 916.5L1074 855.2L990 823.2Z" fill="#ffcb50" stroke="#ffcb50"></path><path d="M256 788.2L327 864.5L365 798.2Z" fill="#ffdb91" stroke="#ffdb91"></path><path d="M347 870.5L340 938.7L391 914.7Z" fill="#fcebce" stroke="#fcebce"></path><path d="M609 92.3L527 160.5L600 167.5Z" fill="#ffdb91" stroke="#ffdb91"></path><path d="M751 1024L875 1024L786 942.7Z" fill="#ffdb91" stroke="#ffdb91"></path><path d="M1069 921.7L1091 890.5L1074 855.2Z" fill="#ffcb50" stroke="#ffcb50"></path><path d="M1187 368.6L1119 382.6L1118 443.6Z" fill="#ffe0a5" stroke="#ffe0a5"></path><path d="M1083 237.8L1059 252.1L1042 290.1Z" fill="#ffc636" stroke="#ffc636"></path><path d="M239 456.9L316 473.9L245 425.6Z" fill="#ffe0a5" stroke="#ffe0a5"></path><path d="M1255 701.7L1175 642.4L1147 653.7Z" fill="#ffd67c" stroke="#ffd67c"></path><path d="M1147 653.7L1175 642.4L1107 641.4Z" fill="#ffc107" stroke="#ffc107"></path><path d="M1144 501.9L1211 484.9L1118 443.6Z" fill="#f6f6f6" stroke="#f6f6f6"></path><path d="M1201 627.4L1175 642.4L1255 701.7Z" fill="#ffdb91" stroke="#ffdb91"></path><path d="M245 425.6L316 473.9L321 409.6Z" fill="#ffd67c" stroke="#ffd67c"></path><path d="M468 1024L519 919.5L459 887.5Z" fill="#ffc107" stroke="#ffc107"></path><path d="M527 990.7L489 1024L591 1024Z" fill="#ffe0a5" stroke="#ffe0a5"></path><path d="M468 1024L459 887.5L391 914.7Z" fill="#fee6b9" stroke="#fee6b9"></path><path d="M759 102.5L686 142.5L761 168.5Z" fill="#ffdb91" stroke="#ffdb91"></path><path d="M686 142.5L609 92.3L600 167.5Z" fill="#ffd67c" stroke="#ffd67c"></path><path d="M254 357.3L245 425.6L321 409.6Z" fill="#fee6b9" stroke="#fee6b9"></path><path d="M385 186.8L362 243.1L458 201.8Z" fill="#ffc636" stroke="#ffc636"></path><path d="M458 201.8L362 243.1L468 245.1Z" fill="#ffc636" stroke="#ffc636"></path><path d="M321 343.3L254 357.3L321 409.6Z" fill="#ffd167" stroke="#ffd167"></path><path d="M202 818.2L256 788.2L180 780.9Z" fill="#fcebce" stroke="#fcebce"></path><path d="M276 738.9L256 788.2L365 798.2Z" fill="#fee6b9" stroke="#fee6b9"></path><path d="M171 643.7L277 686.7L256 642.7Z" fill="#fcebce" stroke="#fcebce"></path><path d="M171 643.7L256 642.7L243 577.4Z" fill="#ffe0a5" stroke="#ffe0a5"></path><path d="M1018 196.8L945 169.5L944 249.1Z" fill="#ffcb50" stroke="#ffcb50"></path><path d="M856 61.3L759 102.5L761 168.5Z" fill="#ffc107" stroke="#ffc107"></path><path d="M1018 196.8L944 249.1L1042 290.1Z" fill="#ffd167" stroke="#ffd167"></path><path d="M359 1024L468 1024L391 914.7Z" fill="#fee6b9" stroke="#fee6b9"></path><path d="M340 938.7L347 870.5L327 864.5Z" fill="#faf0e2" stroke="#faf0e2"></path><path d="M903 104.5L830 240.8L918 205.8Z" fill="#ffcb50" stroke="#ffcb50"></path><path d="M1175 642.4L1191 554.1L1107 641.4Z" fill="#ffd67c" stroke="#ffd67c"></path><path d="M1069 921.7L1074 855.2L992 916.5Z" fill="#ffc107" stroke="#ffc107"></path><path d="M1074 855.2L1148 829.2L1054 791.9Z" fill="#ffd167" stroke="#ffd167"></path><path d="M1083 237.8L1042 290.1L1087 361.3Z" fill="#ffc636" stroke="#ffc636"></path><path d="M1043 1024L992 916.5L966 926.7Z" fill="#fee6b9" stroke="#fee6b9"></path><path d="M875 1024L946 1024L860 956.7Z" fill="#ffcb50" stroke="#ffcb50"></path><path d="M296 987.7L340 938.7L224 923.7Z" fill="#ffd167" stroke="#ffd167"></path><path d="M1255 701.7L1147 653.7L1124 745.9Z" fill="#fee6b9" stroke="#fee6b9"></path><path d="M1175 642.4L1201 627.4L1191 554.1Z" fill="#fcebce" stroke="#fcebce"></path><path d="M249 280.1L254 357.3L321 343.3Z" fill="#f6f6f6" stroke="#f6f6f6"></path><path d="M158 575.1L237 513.1L142 444.9Z" fill="#f6f6f6" stroke="#f6f6f6"></path><path d="M1059 252.1L1018 196.8L1042 290.1Z" fill="#ffe0a5" stroke="#ffe0a5"></path><path d="M654 81.3L686 142.5L696 107.3Z" fill="#ffc636" stroke="#ffc636"></path><path d="M654 81.3L609 92.3L686 142.5Z" fill="#ffd67c" stroke="#ffd67c"></path><path d="M397 126.5L385 186.8L458 201.8Z" fill="#ffcb50" stroke="#ffcb50"></path><path d="M1182 814.2L1148 829.2L1215 845.5Z" fill="#fcebce" stroke="#fcebce"></path><path d="M1091 890.5L1148 829.2L1074 855.2Z" fill="#f6f6f6" stroke="#f6f6f6"></path><path d="M677 0L654 81.3L696 107.3Z" fill="#fee6b9" stroke="#fee6b9"></path><path d="M507 83.3L458 201.8L527 160.5Z" fill="#ffc636" stroke="#ffc636"></path><path d="M362 243.1L295 259.1L321 343.3Z" fill="#ffc636" stroke="#ffc636"></path><path d="M1177 312.3L1083 237.8L1087 361.3Z" fill="#ffd67c" stroke="#ffd67c"></path><path d="M1059 252.1L1083 237.8L1018 196.8Z" fill="#ffc636" stroke="#ffc636"></path><path d="M1177 312.3L1087 361.3L1119 382.6Z" fill="#fee6b9" stroke="#fee6b9"></path><path d="M1242 567.1L1211 484.9L1191 554.1Z" fill="#ffdb91" stroke="#ffdb91"></path><path d="M1191 554.1L1211 484.9L1144 501.9Z" fill="#fee6b9" stroke="#fee6b9"></path><path d="M328 159.5L295 259.1L362 243.1Z" fill="#faf0e2" stroke="#faf0e2"></path><path d="M1016 157.5L945 169.5L1018 196.8Z" fill="#ffc107" stroke="#ffc107"></path><path d="M1004 56.3L903 104.5L945 169.5Z" fill="#ffd67c" stroke="#ffd67c"></path><path d="M945 169.5L903 104.5L918 205.8Z" fill="#faf0e2" stroke="#faf0e2"></path><path d="M759 102.5L789 50.3L696 107.3Z" fill="#ffc107" stroke="#ffc107"></path><path d="M1173 912.5L1148 829.2L1091 890.5Z" fill="#fcebce" stroke="#fcebce"></path><path d="M1148 829.2L1182 814.2L1124 745.9Z" fill="#ffc636" stroke="#ffc636"></path><path d="M158 575.1L243 577.4L237 513.1Z" fill="#fee6b9" stroke="#fee6b9"></path><path d="M158 575.1L171 643.7L243 577.4Z" fill="#fee6b9" stroke="#fee6b9"></path><path d="M256 788.2L202 818.2L327 864.5Z" fill="#faf0e2" stroke="#faf0e2"></path><path d="M237 513.1L239 456.9L142 444.9Z" fill="#ffd167" stroke="#ffd167"></path><path d="M1182 814.2L1198 782.9L1124 745.9Z" fill="#ffcb50" stroke="#ffcb50"></path><path d="M1201 627.4L1242 567.1L1191 554.1Z" fill="#ffc107" stroke="#ffc107"></path><path d="M1211 484.9L1187 368.6L1118 443.6Z" fill="#ffc636" stroke="#ffc636"></path><path d="M1081 127.5L1016 157.5L1018 196.8Z" fill="#ffdb91" stroke="#ffdb91"></path><path d="M198 325.3L245 425.6L254 357.3Z" fill="#faf0e2" stroke="#faf0e2"></path><path d="M142 444.9L239 456.9L245 425.6Z" fill="#ffc107" stroke="#ffc107"></path><path d="M1264 597.4L1242 567.1L1201 627.4Z" fill="#ffd67c" stroke="#ffd67c"></path><path d="M1304 423.6L1219 341.3L1187 368.6Z" fill="#ffd67c" stroke="#ffd67c"></path><path d="M547 0L507 83.3L609 92.3Z" fill="#ffc636" stroke="#ffc636"></path><path d="M609 92.3L507 83.3L527 160.5Z" fill="#ffc636" stroke="#ffc636"></path><path d="M248 196.8L249 280.1L295 259.1Z" fill="#f6f6f6" stroke="#f6f6f6"></path><path d="M180 780.9L277 686.7L171 643.7Z" fill="#f6f6f6" stroke="#f6f6f6"></path><path d="M180 780.9L256 788.2L276 738.9Z" fill="#ffcb50" stroke="#ffcb50"></path><path d="M328 159.5L362 243.1L385 186.8Z" fill="#faf0e2" stroke="#faf0e2"></path><path d="M295 259.1L249 280.1L321 343.3Z" fill="#fee6b9" stroke="#fee6b9"></path><path d="M856 61.3L761 168.5L903 104.5Z" fill="#ffd67c" stroke="#ffd67c"></path><path d="M856 61.3L789 50.3L759 102.5Z" fill="#ffd167" stroke="#ffd167"></path><path d="M486 0L460 67.3L507 83.3Z" fill="#fcebce" stroke="#fcebce"></path><path d="M296 987.7L359 1024L340 938.7Z" fill="#ffdb91" stroke="#ffdb91"></path><path d="M340 938.7L359 1024L391 914.7Z" fill="#ffe0a5" stroke="#ffe0a5"></path><path d="M863 0L856 61.3L938 0Z" fill="#faf0e2" stroke="#faf0e2"></path><path d="M1187 368.6L1177 312.3L1119 382.6Z" fill="#f6f6f6" stroke="#f6f6f6"></path><path d="M1083 237.8L1081 127.5L1018 196.8Z" fill="#ffe0a5" stroke="#ffe0a5"></path><path d="M1219 341.3L1177 312.3L1187 368.6Z" fill="#fee6b9" stroke="#fee6b9"></path><path d="M946 1024L1043 1024L966 926.7Z" fill="#ffc636" stroke="#ffc636"></path><path d="M1161 961.7L1173 912.5L1091 890.5Z" fill="#ffe0a5" stroke="#ffe0a5"></path><path d="M161 785.9L180 780.9L104 752.9Z" fill="#ffd167" stroke="#ffd167"></path><path d="M507 83.3L397 126.5L458 201.8Z" fill="#ffc636" stroke="#ffc636"></path><path d="M1043 1024L1048 1024L1069 921.7Z" fill="#ffc107" stroke="#ffc107"></path><path d="M1255 701.7L1264 597.4L1201 627.4Z" fill="#fcebce" stroke="#fcebce"></path><path d="M1321 521.1L1285 452.9L1211 484.9Z" fill="#ffc107" stroke="#ffc107"></path><path d="M1311 724.7L1255 701.7L1323 758.9Z" fill="#ffdb91" stroke="#ffdb91"></path><path d="M1198 782.9L1255 701.7L1124 745.9Z" fill="#ffd167" stroke="#ffd167"></path><path d="M1215 845.5L1198 782.9L1182 814.2Z" fill="#ffc107" stroke="#ffc107"></path><path d="M224 923.7L340 938.7L327 864.5Z" fill="#ffe0a5" stroke="#ffe0a5"></path><path d="M224 923.7L327 864.5L202 818.2Z" fill="#ffe0a5" stroke="#ffe0a5"></path><path d="M159 250.1L198 325.3L249 280.1Z" fill="#fcebce" stroke="#fcebce"></path><path d="M249 280.1L198 325.3L254 357.3Z" fill="#ffd67c" stroke="#ffd67c"></path><path d="M397 126.5L328 159.5L385 186.8Z" fill="#faf0e2" stroke="#faf0e2"></path><path d="M1161 961.7L1091 890.5L1069 921.7Z" fill="#f6f6f6" stroke="#f6f6f6"></path><path d="M104 752.9L180 780.9L171 643.7Z" fill="#ffe0a5" stroke="#ffe0a5"></path><path d="M180 780.9L161 785.9L202 818.2Z" fill="#fcebce" stroke="#fcebce"></path><path d="M1173 912.5L1215 845.5L1148 829.2Z" fill="#f6f6f6" stroke="#f6f6f6"></path><path d="M654 0L609 92.3L654 81.3Z" fill="#f6f6f6" stroke="#f6f6f6"></path><path d="M507 83.3L460 67.3L397 126.5Z" fill="#ffdb91" stroke="#ffdb91"></path><path d="M397 126.5L318 63.3L328 159.5Z" fill="#fee6b9" stroke="#fee6b9"></path><path d="M1285 452.9L1187 368.6L1211 484.9Z" fill="#ffcb50" stroke="#ffcb50"></path><path d="M1177 312.3L1145 217.8L1083 237.8Z" fill="#faf0e2" stroke="#faf0e2"></path><path d="M198 325.3L142 444.9L245 425.6Z" fill="#ffc107" stroke="#ffc107"></path><path d="M158 575.1L113 582.1L171 643.7Z" fill="#ffcb50" stroke="#ffcb50"></path><path d="M1186 251.1L1145 217.8L1177 312.3Z" fill="#ffcb50" stroke="#ffcb50"></path><path d="M1016 157.5L1004 56.3L945 169.5Z" fill="#fcebce" stroke="#fcebce"></path><path d="M195 921.5L224 923.7L202 818.2Z" fill="#fee6b9" stroke="#fee6b9"></path><path d="M106 323.3L135 446.6L142 444.9Z" fill="#ffcb50" stroke="#ffcb50"></path><path d="M142 444.9L135 446.6L158 575.1Z" fill="#ffc636" stroke="#ffc636"></path><path d="M135 446.6L113 582.1L158 575.1Z" fill="#fcebce" stroke="#fcebce"></path><path d="M817 0L677 0L789 50.3Z" fill="#ffe0a5" stroke="#ffe0a5"></path><path d="M789 50.3L677 0L696 107.3Z" fill="#ffdb91" stroke="#ffdb91"></path><path d="M1135 1024L1161 961.7L1069 921.7Z" fill="#ffcb50" stroke="#ffcb50"></path><path d="M1173 912.5L1192 940.7L1215 845.5Z" fill="#fcebce" stroke="#fcebce"></path><path d="M677 0L654 0L654 81.3Z" fill="#fcebce" stroke="#fcebce"></path><path d="M1220 241.1L1186 251.1L1177 312.3Z" fill="#ffc107" stroke="#ffc107"></path><path d="M113 582.1L105 639.4L171 643.7Z" fill="#ffc636" stroke="#ffc636"></path><path d="M207 186.8L248 196.8L254 124.5Z" fill="#ffdb91" stroke="#ffdb91"></path><path d="M328 159.5L248 196.8L295 259.1Z" fill="#ffc636" stroke="#ffc636"></path><path d="M198 325.3L106 323.3L142 444.9Z" fill="#ffc107" stroke="#ffc107"></path><path d="M1164 152.5L1081 127.5L1145 217.8Z" fill="#faf0e2" stroke="#faf0e2"></path><path d="M1145 217.8L1081 127.5L1083 237.8Z" fill="#ffc107" stroke="#ffc107"></path><path d="M856 61.3L817 0L789 50.3Z" fill="#ffd67c" stroke="#ffd67c"></path><path d="M1321 521.1L1242 567.1L1264 597.4Z" fill="#ffc107" stroke="#ffc107"></path><path d="M1321 521.1L1211 484.9L1242 567.1Z" fill="#fee6b9" stroke="#fee6b9"></path><path d="M1219 341.3L1220 241.1L1177 312.3Z" fill="#faf0e2" stroke="#faf0e2"></path><path d="M863 0L817 0L856 61.3Z" fill="#ffdb91" stroke="#ffdb91"></path><path d="M119 827.2L202 818.2L161 785.9Z" fill="#faf0e2" stroke="#faf0e2"></path><path d="M119 827.2L195 921.5L202 818.2Z" fill="#ffe0a5" stroke="#ffe0a5"></path><path d="M224 923.7L246 1024L296 987.7Z" fill="#faf0e2" stroke="#faf0e2"></path><path d="M1161 961.7L1192 940.7L1173 912.5Z" fill="#ffc107" stroke="#ffc107"></path><path d="M1331 719.7L1264 597.4L1255 701.7Z" fill="#ffc107" stroke="#ffc107"></path><path d="M654 0L547 0L609 92.3Z" fill="#ffd167" stroke="#ffd167"></path><path d="M460 67.3L378 43.3L397 126.5Z" fill="#fcebce" stroke="#fcebce"></path><path d="M938 0L856 61.3L903 104.5Z" fill="#fcebce" stroke="#fcebce"></path><path d="M1048 1024L1135 1024L1069 921.7Z" fill="#ffc636" stroke="#ffc636"></path><path d="M1161 961.7L1193 1024L1192 940.7Z" fill="#f6f6f6" stroke="#f6f6f6"></path><path d="M1081 127.5L1004 56.3L1016 157.5Z" fill="#fee6b9" stroke="#fee6b9"></path><path d="M105 639.4L104 752.9L171 643.7Z" fill="#faf0e2" stroke="#faf0e2"></path><path d="M113 582.1L84 651.4L105 639.4Z" fill="#ffdb91" stroke="#ffdb91"></path><path d="M105 639.4L84 651.4L104 752.9Z" fill="#fcebce" stroke="#fcebce"></path><path d="M0 574.1L84 651.4L113 582.1Z" fill="#ffd167" stroke="#ffd167"></path><path d="M1004 56.3L966 31.3L903 104.5Z" fill="#ffdb91" stroke="#ffdb91"></path><path d="M1255 701.7L1198 782.9L1323 758.9Z" fill="#ffcb50" stroke="#ffcb50"></path><path d="M1361 593.4L1321 521.1L1264 597.4Z" fill="#ffc636" stroke="#ffc636"></path><path d="M1263 258.1L1220 241.1L1219 341.3Z" fill="#ffc107" stroke="#ffc107"></path><path d="M1272 846.5L1198 782.9L1215 845.5Z" fill="#ffc107" stroke="#ffc107"></path><path d="M1304 423.6L1187 368.6L1285 452.9Z" fill="#ffe0a5" stroke="#ffe0a5"></path><path d="M1186 251.1L1234 215.8L1145 217.8Z" fill="#ffcb50" stroke="#ffcb50"></path><path d="M1081 127.5L1092 60.3L1004 56.3Z" fill="#ffcb50" stroke="#ffcb50"></path><path d="M1192 940.7L1272 846.5L1215 845.5Z" fill="#ffc636" stroke="#ffc636"></path><path d="M1291 845.2L1272 846.5L1270 972.7Z" fill="#fee6b9" stroke="#fee6b9"></path><path d="M1321 521.1L1304 423.6L1285 452.9Z" fill="#ffcb50" stroke="#ffcb50"></path><path d="M104 752.9L119 827.2L161 785.9Z" fill="#ffd67c" stroke="#ffd67c"></path><path d="M202 1024L246 1024L224 923.7Z" fill="#ffc636" stroke="#ffc636"></path><path d="M296 987.7L246 1024L359 1024Z" fill="#ffc107" stroke="#ffc107"></path><path d="M202 1024L224 923.7L195 921.5Z" fill="#ffc107" stroke="#ffc107"></path><path d="M547 0L486 0L507 83.3Z" fill="#fcebce" stroke="#fcebce"></path><path d="M452 0L378 43.3L460 67.3Z" fill="#ffc107" stroke="#ffc107"></path><path d="M999 0L938 0L966 31.3Z" fill="#ffd67c" stroke="#ffd67c"></path><path d="M966 31.3L938 0L903 104.5Z" fill="#faf0e2" stroke="#faf0e2"></path><path d="M254 124.5L248 196.8L328 159.5Z" fill="#faf0e2" stroke="#faf0e2"></path><path d="M248 196.8L207 186.8L249 280.1Z" fill="#fee6b9" stroke="#fee6b9"></path><path d="M1234 215.8L1164 152.5L1145 217.8Z" fill="#fee6b9" stroke="#fee6b9"></path><path d="M1004 56.3L999 0L966 31.3Z" fill="#fcebce" stroke="#fcebce"></path><path d="M207 186.8L159 250.1L249 280.1Z" fill="#ffe0a5" stroke="#ffe0a5"></path><path d="M135 446.6L51 462.9L113 582.1Z" fill="#ffc107" stroke="#ffc107"></path><path d="M1342 290.1L1299 365.3L1374 368.3Z" fill="#ffc636" stroke="#ffc636"></path><path d="M1304 423.6L1299 365.3L1219 341.3Z" fill="#ffd67c" stroke="#ffd67c"></path><path d="M1220 241.1L1234 215.8L1186 251.1Z" fill="#ffc107" stroke="#ffc107"></path><path d="M486 0L452 0L460 67.3Z" fill="#faf0e2" stroke="#faf0e2"></path><path d="M1270 972.7L1272 846.5L1192 940.7Z" fill="#fcebce" stroke="#fcebce"></path><path d="M1272 846.5L1323 758.9L1198 782.9Z" fill="#faf0e2" stroke="#faf0e2"></path><path d="M1323 758.9L1331 719.7L1311 724.7Z" fill="#ffe0a5" stroke="#ffe0a5"></path><path d="M1311 724.7L1331 719.7L1255 701.7Z" fill="#ffc636" stroke="#ffc636"></path><path d="M318 63.3L254 124.5L328 159.5Z" fill="#ffcb50" stroke="#ffcb50"></path><path d="M207 186.8L137 166.5L159 250.1Z" fill="#fee6b9" stroke="#fee6b9"></path><path d="M1291 845.2L1323 758.9L1272 846.5Z" fill="#ffdb91" stroke="#ffdb91"></path><path d="M40 786.2L107 846.5L119 827.2Z" fill="#ffd67c" stroke="#ffd67c"></path><path d="M119 827.2L107 846.5L195 921.5Z" fill="#f6f6f6" stroke="#f6f6f6"></path><path d="M40 786.2L119 827.2L104 752.9Z" fill="#ffcb50" stroke="#ffcb50"></path><path d="M355 0L318 63.3L378 43.3Z" fill="#ffc107" stroke="#ffc107"></path><path d="M378 43.3L318 63.3L397 126.5Z" fill="#fcebce" stroke="#fcebce"></path><path d="M159 250.1L106 323.3L198 325.3Z" fill="#ffd167" stroke="#ffd167"></path><path d="M1263 258.1L1234 215.8L1220 241.1Z" fill="#f6f6f6" stroke="#f6f6f6"></path><path d="M1299 365.3L1263 258.1L1219 341.3Z" fill="#ffc107" stroke="#ffc107"></path><path d="M1135 1024L1193 1024L1161 961.7Z" fill="#ffdb91" stroke="#ffdb91"></path><path d="M1192 101.3L1081 127.5L1164 152.5Z" fill="#ffe0a5" stroke="#ffe0a5"></path><path d="M1192 101.3L1092 60.3L1081 127.5Z" fill="#fee6b9" stroke="#fee6b9"></path><path d="M173 1024L202 1024L139 987.7Z" fill="#ffe0a5" stroke="#ffe0a5"></path><path d="M1331 719.7L1361 593.4L1264 597.4Z" fill="#f6f6f6" stroke="#f6f6f6"></path><path d="M1321 521.1L1393 515.9L1304 423.6Z" fill="#ffd67c" stroke="#ffd67c"></path><path d="M1358 729.9L1361 593.4L1331 719.7Z" fill="#faf0e2" stroke="#faf0e2"></path><path d="M34 383.6L51 462.9L135 446.6Z" fill="#faf0e2" stroke="#faf0e2"></path><path d="M84 651.4L31 724.7L104 752.9Z" fill="#ffd167" stroke="#ffd167"></path><path d="M1097 0L999 0L1004 56.3Z" fill="#ffc636" stroke="#ffc636"></path><path d="M1379 798.2L1358 729.9L1323 758.9Z" fill="#ffcb50" stroke="#ffcb50"></path><path d="M1323 758.9L1358 729.9L1331 719.7Z" fill="#f6f6f6" stroke="#f6f6f6"></path><path d="M1379 798.2L1323 758.9L1291 845.2Z" fill="#faf0e2" stroke="#faf0e2"></path><path d="M1440 644.4L1377 563.1L1361 593.4Z" fill="#f6f6f6" stroke="#f6f6f6"></path><path d="M1361 593.4L1377 563.1L1321 521.1Z" fill="#ffc107" stroke="#ffc107"></path><path d="M1342 290.1L1282 236.8L1263 258.1Z" fill="#ffc107" stroke="#ffc107"></path><path d="M1263 258.1L1282 236.8L1234 215.8Z" fill="#ffc107" stroke="#ffc107"></path><path d="M1234 215.8L1240 168.5L1164 152.5Z" fill="#ffdb91" stroke="#ffdb91"></path><path d="M1342 290.1L1263 258.1L1299 365.3Z" fill="#ffdb91" stroke="#ffdb91"></path><path d="M0 645.7L31 724.7L84 651.4Z" fill="#fcebce" stroke="#fcebce"></path><path d="M139 987.7L202 1024L195 921.5Z" fill="#faf0e2" stroke="#faf0e2"></path><path d="M139 987.7L195 921.5L107 846.5Z" fill="#fcebce" stroke="#fcebce"></path><path d="M253 49.3L177 151.5L254 124.5Z" fill="#faf0e2" stroke="#faf0e2"></path><path d="M254 124.5L177 151.5L207 186.8Z" fill="#fcebce" stroke="#fcebce"></path><path d="M159 250.1L92 248.1L106 323.3Z" fill="#ffd167" stroke="#ffd167"></path><path d="M452 0L355 0L378 43.3Z" fill="#faf0e2" stroke="#faf0e2"></path><path d="M318 63.3L253 49.3L254 124.5Z" fill="#fee6b9" stroke="#fee6b9"></path><path d="M1282 236.8L1240 168.5L1234 215.8Z" fill="#fcebce" stroke="#fcebce"></path><path d="M1193 1024L1270 972.7L1192 940.7Z" fill="#ffd67c" stroke="#ffd67c"></path><path d="M50 958.7L139 987.7L107 846.5Z" fill="#fcebce" stroke="#fcebce"></path><path d="M31 724.7L40 786.2L104 752.9Z" fill="#faf0e2" stroke="#faf0e2"></path><path d="M1240 168.5L1192 101.3L1164 152.5Z" fill="#ffe0a5" stroke="#ffe0a5"></path><path d="M1092 60.3L1097 0L1004 56.3Z" fill="#fee6b9" stroke="#fee6b9"></path><path d="M1440 535.1L1393 515.9L1377 563.1Z" fill="#f6f6f6" stroke="#f6f6f6"></path><path d="M1377 563.1L1393 515.9L1321 521.1Z" fill="#f6f6f6" stroke="#f6f6f6"></path><path d="M53 306.3L34 383.6L106 323.3Z" fill="#ffd167" stroke="#ffd167"></path><path d="M106 323.3L34 383.6L135 446.6Z" fill="#ffcb50" stroke="#ffcb50"></path><path d="M51 462.9L0 574.1L113 582.1Z" fill="#ffe0a5" stroke="#ffe0a5"></path><path d="M110 174.8L92 248.1L159 250.1Z" fill="#ffd167" stroke="#ffd167"></path><path d="M0 468.9L0 574.1L51 462.9Z" fill="#ffdb91" stroke="#ffdb91"></path><path d="M31 724.7L0 713.9L40 786.2Z" fill="#ffd67c" stroke="#ffd67c"></path><path d="M0 574.1L0 623.4L84 651.4Z" fill="#ffcb50" stroke="#ffcb50"></path><path d="M307 0L253 49.3L318 63.3Z" fill="#ffd67c" stroke="#ffd67c"></path><path d="M177 151.5L137 166.5L207 186.8Z" fill="#ffd167" stroke="#ffd167"></path><path d="M0 623.4L0 645.7L84 651.4Z" fill="#fcebce" stroke="#fcebce"></path><path d="M74 145.5L137 166.5L104 94.3Z" fill="#ffcb50" stroke="#ffcb50"></path><path d="M92 248.1L53 306.3L106 323.3Z" fill="#ffcb50" stroke="#ffcb50"></path><path d="M0 280.1L53 306.3L92 248.1Z" fill="#ffcb50" stroke="#ffcb50"></path><path d="M1282 236.8L1297 120.5L1240 168.5Z" fill="#ffd167" stroke="#ffd167"></path><path d="M1265 36.3L1164 0L1192 101.3Z" fill="#faf0e2" stroke="#faf0e2"></path><path d="M1374 368.3L1299 365.3L1304 423.6Z" fill="#fcebce" stroke="#fcebce"></path><path d="M355 0L307 0L318 63.3Z" fill="#faf0e2" stroke="#faf0e2"></path><path d="M1406 413.6L1374 368.3L1304 423.6Z" fill="#ffc107" stroke="#ffc107"></path><path d="M1391 910.5L1379 798.2L1291 845.2Z" fill="#ffe0a5" stroke="#ffe0a5"></path><path d="M1440 666.7L1440 644.4L1361 593.4Z" fill="#ffcb50" stroke="#ffcb50"></path><path d="M0 450.6L0 468.9L51 462.9Z" fill="#ffd167" stroke="#ffd167"></path><path d="M0 450.6L51 462.9L34 383.6Z" fill="#ffc636" stroke="#ffc636"></path><path d="M0 645.7L0 713.9L31 724.7Z" fill="#f6f6f6" stroke="#f6f6f6"></path><path d="M40 786.2L43 885.5L107 846.5Z" fill="#faf0e2" stroke="#faf0e2"></path><path d="M1164 0L1097 0L1092 60.3Z" fill="#f6f6f6" stroke="#f6f6f6"></path><path d="M0 379.3L0 450.6L34 383.6Z" fill="#ffc636" stroke="#ffc636"></path><path d="M0 821.2L43 885.5L40 786.2Z" fill="#ffe0a5" stroke="#ffe0a5"></path><path d="M139 987.7L76 1024L173 1024Z" fill="#f6f6f6" stroke="#f6f6f6"></path><path d="M137 166.5L110 174.8L159 250.1Z" fill="#ffc107" stroke="#ffc107"></path><path d="M66 172.8L110 174.8L74 145.5Z" fill="#fcebce" stroke="#fcebce"></path><path d="M110 174.8L137 166.5L74 145.5Z" fill="#ffcb50" stroke="#ffcb50"></path><path d="M1393 515.9L1406 413.6L1304 423.6Z" fill="#ffe0a5" stroke="#ffe0a5"></path><path d="M1374 368.3L1440 323.3L1342 290.1Z" fill="#ffe0a5" stroke="#ffe0a5"></path><path d="M1440 493.9L1406 413.6L1393 515.9Z" fill="#ffe0a5" stroke="#ffe0a5"></path><path d="M0 280.1L0 379.3L53 306.3Z" fill="#ffd67c" stroke="#ffd67c"></path><path d="M53 306.3L0 379.3L34 383.6Z" fill="#ffc636" stroke="#ffc636"></path><path d="M0 713.9L0 821.2L40 786.2Z" fill="#ffe0a5" stroke="#ffe0a5"></path><path d="M1440 666.7L1361 593.4L1358 729.9Z" fill="#ffc107" stroke="#ffc107"></path><path d="M1440 644.4L1440 535.1L1377 563.1Z" fill="#fcebce" stroke="#fcebce"></path><path d="M1440 752.9L1440 666.7L1358 729.9Z" fill="#faf0e2" stroke="#faf0e2"></path><path d="M1440 535.1L1440 493.9L1393 515.9Z" fill="#ffc636" stroke="#ffc636"></path><path d="M0 948.7L50 958.7L43 885.5Z" fill="#ffc107" stroke="#ffc107"></path><path d="M43 885.5L50 958.7L107 846.5Z" fill="#ffc636" stroke="#ffc636"></path><path d="M1192 101.3L1164 0L1092 60.3Z" fill="#f6f6f6" stroke="#f6f6f6"></path><path d="M1297 120.5L1192 101.3L1240 168.5Z" fill="#ffcb50" stroke="#ffcb50"></path><path d="M1193 1024L1321 1024L1270 972.7Z" fill="#faf0e2" stroke="#faf0e2"></path><path d="M1270 972.7L1391 910.5L1291 845.2Z" fill="#ffdb91" stroke="#ffdb91"></path><path d="M1379 798.2L1440 752.9L1358 729.9Z" fill="#ffd67c" stroke="#ffd67c"></path><path d="M1440 813.2L1440 752.9L1379 798.2Z" fill="#ffc107" stroke="#ffc107"></path><path d="M137 166.5L177 151.5L104 94.3Z" fill="#ffe0a5" stroke="#ffe0a5"></path><path d="M110 174.8L66 172.8L92 248.1Z" fill="#ffcb50" stroke="#ffcb50"></path><path d="M50 958.7L76 1024L139 987.7Z" fill="#ffc107" stroke="#ffc107"></path><path d="M1333 87.3L1297 120.5L1402 156.5Z" fill="#ffc636" stroke="#ffc636"></path><path d="M1404 178.8L1297 120.5L1282 236.8Z" fill="#ffe0a5" stroke="#ffe0a5"></path><path d="M1440 383.6L1374 368.3L1406 413.6Z" fill="#ffc636" stroke="#ffc636"></path><path d="M1321 1024L1391 910.5L1270 972.7Z" fill="#ffcb50" stroke="#ffcb50"></path><path d="M0 821.2L0 893.5L43 885.5Z" fill="#fee6b9" stroke="#fee6b9"></path><path d="M50 958.7L0 1024L76 1024Z" fill="#ffc107" stroke="#ffc107"></path><path d="M0 184.8L0 280.1L92 248.1Z" fill="#faf0e2" stroke="#faf0e2"></path><path d="M104 94.3L177 151.5L104 71.3Z" fill="#faf0e2" stroke="#faf0e2"></path><path d="M66 172.8L0 184.8L92 248.1Z" fill="#ffc636" stroke="#ffc636"></path><path d="M1440 493.9L1440 383.6L1406 413.6Z" fill="#ffcb50" stroke="#ffcb50"></path><path d="M1440 849.5L1440 813.2L1379 798.2Z" fill="#ffe0a5" stroke="#ffe0a5"></path><path d="M183 0L177 151.5L253 49.3Z" fill="#fcebce" stroke="#fcebce"></path><path d="M1391 910.5L1440 849.5L1379 798.2Z" fill="#ffd67c" stroke="#ffd67c"></path><path d="M1440 932.7L1440 849.5L1391 910.5Z" fill="#ffcb50" stroke="#ffcb50"></path><path d="M307 0L183 0L253 49.3Z" fill="#ffdb91" stroke="#ffdb91"></path><path d="M0 893.5L0 948.7L43 885.5Z" fill="#ffcb50" stroke="#ffcb50"></path><path d="M1440 383.6L1440 323.3L1374 368.3Z" fill="#ffcb50" stroke="#ffcb50"></path><path d="M183 0L104 71.3L177 151.5Z" fill="#ffc636" stroke="#ffc636"></path><path d="M104 94.3L0 125.5L74 145.5Z" fill="#ffc107" stroke="#ffc107"></path><path d="M0 125.5L0 184.8L66 172.8Z" fill="#ffd67c" stroke="#ffd67c"></path><path d="M1333 87.3L1265 36.3L1297 120.5Z" fill="#ffe0a5" stroke="#ffe0a5"></path><path d="M1297 120.5L1265 36.3L1192 101.3Z" fill="#ffc636" stroke="#ffc636"></path><path d="M1321 1024L1403 983.7L1391 910.5Z" fill="#ffdb91" stroke="#ffdb91"></path><path d="M1312 0L1248 0L1265 36.3Z" fill="#ffcb50" stroke="#ffcb50"></path><path d="M1265 36.3L1248 0L1164 0Z" fill="#ffc636" stroke="#ffc636"></path><path d="M1321 1024L1381 1024L1403 983.7Z" fill="#ffc107" stroke="#ffc107"></path><path d="M1404 178.8L1282 236.8L1342 290.1Z" fill="#ffd167" stroke="#ffd167"></path><path d="M0 125.5L66 172.8L74 145.5Z" fill="#ffd67c" stroke="#ffd67c"></path><path d="M1440 323.3L1440 250.1L1342 290.1Z" fill="#ffd167" stroke="#ffd167"></path><path d="M1440 1024L1440 932.7L1403 983.7Z" fill="#ffc636" stroke="#ffc636"></path><path d="M1403 983.7L1440 932.7L1391 910.5Z" fill="#ffc636" stroke="#ffc636"></path><path d="M1440 250.1L1404 178.8L1342 290.1Z" fill="#ffc636" stroke="#ffc636"></path><path d="M0 948.7L0 1024L50 958.7Z" fill="#ffc636" stroke="#ffc636"></path><path d="M183 0L124 0L104 71.3Z" fill="#ffe0a5" stroke="#ffe0a5"></path><path d="M0 47.3L0 125.5L104 94.3Z" fill="#ffc107" stroke="#ffc107"></path><path d="M1440 162.5L1402 156.5L1404 178.8Z" fill="#faf0e2" stroke="#faf0e2"></path><path d="M1404 178.8L1402 156.5L1297 120.5Z" fill="#fcebce" stroke="#fcebce"></path><path d="M1333 87.3L1312 0L1265 36.3Z" fill="#f6f6f6" stroke="#f6f6f6"></path><path d="M0 47.3L104 94.3L104 71.3Z" fill="#ffd67c" stroke="#ffd67c"></path><path d="M1440 162.5L1378 86.3L1402 156.5Z" fill="#ffcb50" stroke="#ffcb50"></path><path d="M1402 156.5L1378 86.3L1333 87.3Z" fill="#ffcb50" stroke="#ffcb50"></path><path d="M1440 250.1L1440 171.8L1404 178.8Z" fill="#ffd67c" stroke="#ffd67c"></path><path d="M1378 86.3L1312 0L1333 87.3Z" fill="#f6f6f6" stroke="#f6f6f6"></path><path d="M1440 171.8L1440 162.5L1404 178.8Z" fill="#ffd167" stroke="#ffd167"></path><path d="M1378 86.3L1402 0L1312 0Z" fill="#ffcb50" stroke="#ffcb50"></path><path d="M1381 1024L1440 1024L1403 983.7Z" fill="#ffdb91" stroke="#ffdb91"></path><path d="M124 0L57 0L104 71.3Z" fill="#ffd67c" stroke="#ffd67c"></path><path d="M57 0L0 47.3L104 71.3Z" fill="#ffcb50" stroke="#ffcb50"></path><path d="M57 0L0 0L0 47.3Z" fill="#ffd167" stroke="#ffd167"></path><path d="M1440 26.3L1402 0L1378 86.3Z" fill="#faf0e2" stroke="#faf0e2"></path><path d="M1440 162.5L1440 26.3L1378 86.3Z" fill="#f6f6f6" stroke="#f6f6f6"></path><path d="M1440 26.3L1440 0L1402 0Z" fill="#faf0e2" stroke="#faf0e2"></path></g></svg>